HIERARCHY
ROOT Hips
{
	OFFSET 0.000000 0.000000 0.000000
	CHANNELS 6 Xposition Yposition Zposition Zrotation Yrotation Xrotation 
	JOINT LeftUpLeg_virtual
	{
		OFFSET 0.000000 0.000000 0.000000
		CHANNELS 3 Zrotation Yrotation Xrotation
		JOINT LeftUpLeg
		{
			OFFSET 8.479694 -4.795517 -0.379053
			CHANNELS 3 Zrotation Yrotation Xrotation
			JOINT LeftLeg
			{
				OFFSET 0.485052 -32.551468 0.112863
				CHANNELS 3 Zrotation Yrotation Xrotation
				JOINT LeftFoot
				{
					OFFSET 0.438033 -32.635670 -3.012641
					CHANNELS 3 Zrotation Yrotation Xrotation
					JOINT LeftToeBase
					{
						OFFSET 0.970169 -13.225353 11.864223
						CHANNELS 3 Zrotation Yrotation Xrotation
						End Site
						{
							OFFSET 0.000000 0.000000 0.000000
						}
					}
				}
			}
		}
	}
	JOINT RightUpLeg_virtual
	{
		OFFSET 0.000000 0.000000 0.000000
		CHANNELS 3 Zrotation Yrotation Xrotation
		JOINT RightUpLeg
		{
			OFFSET -8.479694 -4.795517 -0.379053
			CHANNELS 3 Zrotation Yrotation Xrotation
			JOINT RightLeg
			{
				OFFSET -0.484100 -32.551483 0.112903
				CHANNELS 3 Zrotation Yrotation Xrotation
				JOINT RightFoot
				{
					OFFSET -0.438985 -32.635651 -3.012681
					CHANNELS 3 Zrotation Yrotation Xrotation
					JOINT RightToeBase
					{
						OFFSET -0.970169 -13.225354 11.864223
						CHANNELS 3 Zrotation Yrotation Xrotation
						End Site
						{
							OFFSET 0.000000 0.000000 0.000000
						}
					}
				}
			}
		}
	}
	JOINT Spine_virtual
	{
		OFFSET 0.000000 0.000000 0.000000
		CHANNELS 3 Zrotation Yrotation Xrotation
		JOINT Spine
		{
			OFFSET 0.000000 7.722015 1.166203
			CHANNELS 3 Zrotation Yrotation Xrotation
			JOINT Spine1
			{
				OFFSET 0.000000 12.024086 0.248766
				CHANNELS 3 Zrotation Yrotation Xrotation
				JOINT Spine2
				{
					OFFSET -0.000000 11.503036 -0.491240
					CHANNELS 3 Zrotation Yrotation Xrotation
					JOINT Neck_virtual
					{
						OFFSET 0.000000 0.000000 0.000000
						CHANNELS 3 Zrotation Yrotation Xrotation
						JOINT Neck
						{
							OFFSET 0.000000 18.430687 -3.123054
							CHANNELS 3 Zrotation Yrotation Xrotation
							JOINT Head
							{
								OFFSET -0.000000 9.051071 1.034021
								CHANNELS 3 Zrotation Yrotation Xrotation
								End Site
								{
									OFFSET 0.000000 0.000000 0.000000
								}
							}
						}
					}
					JOINT LeftShoulder_virtual
					{
						OFFSET 0.000000 0.000000 0.000000
						CHANNELS 3 Zrotation Yrotation Xrotation
						JOINT LeftShoulder
						{
							OFFSET 6.197824 13.665230 -4.064723
							CHANNELS 3 Zrotation Yrotation Xrotation
							JOINT LeftArm
							{
								OFFSET 7.778132 -0.187073 -1.709282
								CHANNELS 3 Zrotation Yrotation Xrotation
								JOINT LeftForeArm
								{
									OFFSET 21.954697 0.000000 -2.041093
									CHANNELS 3 Zrotation Yrotation Xrotation
									JOINT LeftHand
									{
										OFFSET 22.992908 0.000000 -0.870901
										CHANNELS 3 Zrotation Yrotation Xrotation
										End Site
										{
											OFFSET 0.000000 0.000000 0.000000
										}
									}
								}
							}
						}
					}
					JOINT RightShoulder_virtual
					{
						OFFSET 0.000000 0.000000 0.000000
						CHANNELS 3 Zrotation Yrotation Xrotation
						JOINT RightShoulder
						{
							OFFSET -6.197824 13.665230 -4.064723
							CHANNELS 3 Zrotation Yrotation Xrotation
							JOINT RightArm
							{
								OFFSET -7.778132 -0.187073 -1.709282
								CHANNELS 3 Zrotation Yrotation Xrotation
								JOINT RightForeArm
								{
									OFFSET -21.954697 0.000000 -2.041093
									CHANNELS 3 Zrotation Yrotation Xrotation
									JOINT RightHand
									{
										OFFSET -22.992908 0.000000 -0.870901
										CHANNELS 3 Zrotation Yrotation Xrotation
										End Site
										{
											OFFSET 0.000000 0.000000 0.000000
										}
									}
								}
							}
						}
					}
				}
			}
		}
	}
}
MOTION
Frames: 10
Frame Time: 0.033333
-27.727385 78.864830 126.310799 165.441470 88.891292 165.632019 -3.151579 -8.607888 13.863268 -1.966713 6.886140 -45.966152 5.775390 6.125950 27.461305 -0.119935 -13.276813 0.036923 0.000000 0.000000 0.000000 5.410700 -10.312255 12.413556 -2.772857 -7.291696 -11.424975 -0.574361 4.964219 33.178102 4.067321 11.623208 -13.656230 0.000000 0.000000 0.000000 0.661506 -5.160202 6.770540 2.122993 6.960118 -8.211900 -1.943317 -1.375668 6.799689 0.020629 0.022455 0.058113 -1.799638 -0.066528 7.717505 -9.095123 6.530264 -4.522240 0.000000 0.000000 0.000000 -0.262286 0.236049 4.403414 8.911732 3.001673 0.245385 -55.463175 -6.227779 41.957101 -129.328034 -86.023542 163.289920 0.000000 0.000000 0.000000 -4.686208 1.815409 3.596013 34.241231 5.423913 5.974353 32.078718 29.197966 -6.152108 -2.310779 54.746357 -1.919325 0.000000 0.000000 0.000000 
-24.642994 78.686737 126.039185 167.590794 88.183930 167.787968 -3.103214 -8.486526 14.066469 -2.769469 6.141158 -44.825596 6.158746 6.347948 28.893367 -0.622672 -13.536841 0.428394 0.000000 0.000000 0.000000 4.840397 -10.125979 12.363492 -2.767768 -7.656336 -10.464241 -0.740684 4.592463 34.621993 4.049289 11.640715 -10.900770 0.000000 0.000000 0.000000 0.451699 -5.184313 6.454066 1.357809 6.747338 -8.097716 -1.794196 -1.371710 6.926009 0.012707 -0.011862 0.023274 -1.626705 0.022357 7.928818 -9.267904 6.591515 -4.602464 0.000000 0.000000 0.000000 -0.060195 0.241093 4.540583 8.933438 2.957679 0.130226 -55.513339 -6.011016 41.673955 -126.938205 -85.989070 160.902400 0.000000 0.000000 0.000000 -4.453150 1.899964 3.723416 34.578345 5.127380 5.970308 33.777246 27.247245 -3.861306 -2.397645 52.020486 -1.781489 0.000000 0.000000 0.000000 
-21.678612 78.581673 125.565575 173.512541 87.514148 173.474756 -2.803283 -8.039806 14.006747 -3.437269 4.684092 -43.108083 6.534185 6.352651 30.717792 -1.020827 -13.834348 -0.719764 0.000000 0.000000 0.000000 4.337772 -10.058250 12.184300 -3.158932 -8.932471 -9.644132 -0.502358 4.002893 36.686264 4.770786 12.547824 -8.663913 0.000000 0.000000 0.000000 0.391024 -5.187276 6.131071 0.673425 6.461855 -7.814644 -1.617562 -1.414481 7.126882 0.047313 -0.064161 -0.000782 -1.568045 -0.165862 8.011794 -9.483800 6.862111 -4.632677 0.000000 0.000000 0.000000 0.015622 0.254791 4.596755 8.720005 2.831249 0.188058 -55.598481 -5.541586 41.490893 -124.841419 -86.139129 158.828946 0.000000 0.000000 0.000000 -4.266497 1.844028 3.794137 34.872169 4.733922 5.930150 35.272903 24.621782 -1.662313 -2.469064 48.633898 -1.593219 0.000000 0.000000 0.000000 
-18.828163 78.564819 124.964745 172.970907 87.102944 172.713067 -2.526716 -7.595186 13.823409 -4.116973 2.867532 -41.011471 6.844021 6.392106 32.081730 -0.929937 -13.948504 -3.727255 0.000000 0.000000 0.000000 3.704393 -9.649066 12.058236 -3.791003 -10.516507 -9.173409 -0.414551 3.264113 39.291507 5.734880 13.375660 -6.099264 0.000000 0.000000 0.000000 0.324412 -4.972070 5.849010 -0.002227 6.091819 -7.602496 -1.521771 -1.476508 7.292931 0.055949 -0.101250 -0.075850 -1.436441 -0.078251 8.206002 -9.699058 6.730804 -4.444142 0.000000 0.000000 0.000000 0.080269 0.193222 4.793559 8.329242 2.610082 0.195238 -55.604372 -5.029712 41.095739 -121.160452 -86.201406 155.043914 0.000000 0.000000 0.000000 -3.973363 1.854234 3.958098 35.246348 4.271725 5.806998 36.421646 21.608608 -0.159386 -2.430500 44.858224 -1.233467 0.000000 0.000000 0.000000 
-16.137619 78.574280 124.344955 171.034166 86.510527 170.575942 -2.448738 -6.826220 13.986417 -4.591491 0.879687 -38.909856 7.311741 6.383835 32.990743 -0.307769 -13.494109 -7.046461 0.000000 0.000000 0.000000 3.218445 -9.162293 12.156115 -4.604515 -11.564356 -9.490302 -0.423282 2.887353 42.674879 6.758521 14.230330 -4.338616 0.000000 0.000000 0.000000 0.169448 -4.480404 5.545207 -0.571303 5.618863 -7.295121 -1.432173 -1.599655 7.456118 0.090879 -0.147468 -0.075362 -1.279311 -0.319448 8.292338 -9.888774 6.888990 -4.485345 0.000000 0.000000 0.000000 0.151609 0.128287 4.915953 8.117712 2.246601 0.300374 -55.648973 -4.746565 40.965760 -119.870803 -86.701704 153.628672 0.000000 0.000000 0.000000 -3.786657 1.691046 4.111139 35.376685 3.851782 5.532452 37.463014 18.523669 0.751895 -2.381339 40.990807 -0.833766 0.000000 0.000000 0.000000 
-13.575089 78.678261 123.752853 173.552566 86.013556 173.138315 -2.312503 -5.814449 14.107573 -4.933885 -0.696308 -37.125077 7.583565 6.249670 33.645034 0.116436 -13.162931 -9.396424 0.000000 0.000000 0.000000 2.779231 -8.127973 12.197499 -4.911364 -11.980459 -11.269351 -0.859553 2.346899 47.227254 8.183809 14.890390 -4.065076 0.000000 0.000000 0.000000 0.205404 -3.720202 5.242347 -0.830374 5.071586 -7.062515 -1.317443 -1.722681 7.502918 0.095661 -0.158899 -0.085510 -1.270771 -0.339204 8.465454 -9.950128 6.931228 -4.377270 0.000000 0.000000 0.000000 0.203550 0.028368 5.116410 7.944464 1.779347 0.415318 -55.658054 -4.773895 40.679746 -116.992193 -87.007751 150.576916 0.000000 0.000000 0.000000 -3.663940 1.580163 4.381274 35.502873 3.483624 5.141378 38.392893 15.353470 1.313642 -2.460993 37.088545 -0.628401 0.000000 0.000000 0.000000 
-11.095049 78.847626 123.235924 176.343067 85.570919 176.073917 -2.396353 -4.781736 14.195798 -5.092203 -1.898836 -35.567227 7.728987 5.775046 34.251271 0.494092 -12.826011 -11.244690 0.000000 0.000000 0.000000 2.436817 -6.640803 12.190227 -5.047351 -12.011752 -14.418519 -0.971922 2.328071 51.663155 8.465179 15.242458 -4.142061 0.000000 0.000000 0.000000 0.183410 -2.857834 5.020796 -0.896670 4.614089 -6.822477 -1.098705 -1.782241 7.528479 -0.035648 -0.079724 -0.124475 -1.118605 -0.505059 8.663489 -9.939814 7.188859 -4.260266 0.000000 0.000000 0.000000 0.339600 -0.096235 5.342483 7.901549 1.244737 0.480744 -55.523656 -5.023237 40.520842 -114.180177 -87.198723 147.496678 0.000000 0.000000 0.000000 -3.477951 1.457368 4.663011 35.576403 3.061057 4.830710 39.267400 12.206261 1.113958 -2.315325 33.469484 -0.253423 0.000000 0.000000 0.000000 
-8.724229 79.069023 122.799889 176.189142 84.673104 175.939731 -2.679732 -3.813216 14.361321 -5.105944 -3.178787 -33.827618 7.789125 5.133665 34.562212 0.775341 -12.476693 -12.399678 0.000000 0.000000 0.000000 2.019570 -5.310537 12.288921 -5.195790 -11.476338 -18.798018 -0.864800 2.645989 55.209116 8.247655 15.571112 -3.784145 0.000000 0.000000 0.000000 -0.069481 -1.990600 4.841515 -0.957555 4.017277 -6.294756 -0.953958 -1.923250 7.582174 0.099381 -0.063915 -0.050027 -1.146672 -0.784310 8.731821 -9.995131 7.316954 -4.178252 0.000000 0.000000 0.000000 0.294866 -0.259229 5.346454 7.814076 0.664246 0.646614 -55.225904 -5.198323 40.728531 -117.827566 -87.439371 150.791056 0.000000 0.000000 0.000000 -3.429604 1.267330 4.868877 35.506520 2.701145 4.417515 40.257657 8.762843 0.894111 -2.217832 30.545917 -0.073289 0.000000 0.000000 0.000000 
-6.432049 79.299599 122.467125 178.247447 83.626309 178.169227 -2.947842 -2.829436 14.280547 -4.896273 -4.416969 -32.046739 7.808900 4.245458 34.565415 0.945187 -12.110029 -13.216264 0.000000 0.000000 0.000000 1.779541 -4.030785 12.202671 -5.069377 -10.409492 -23.890113 -0.622017 3.270890 57.445518 7.792711 16.102615 -4.159668 0.000000 0.000000 0.000000 -0.194123 -1.030663 4.570939 -0.833822 3.425600 -5.721443 -0.875237 -2.033133 7.601026 -0.000141 -0.012031 -0.047759 -0.933583 -0.847607 8.936031 -9.846763 7.482580 -4.068973 0.000000 0.000000 0.000000 0.492109 -0.454385 5.558175 8.012468 0.124451 0.834363 -54.796084 -5.326002 40.955471 -124.334400 -87.353366 156.876591 0.000000 0.000000 0.000000 -3.222186 1.174933 5.051000 35.279293 2.062230 3.863691 41.438502 5.046743 0.539582 -1.994851 28.609689 0.232094 0.000000 0.000000 0.000000 
-4.211973 79.495789 122.225288 178.926777 82.424018 178.824980 -3.261912 -1.960831 14.108370 -4.602511 -5.731905 -29.855638 7.844324 3.445014 34.480605 1.020297 -11.705833 -13.933735 0.000000 0.000000 0.000000 1.384077 -2.849509 12.174174 -4.869827 -8.773095 -28.912925 -0.302547 3.787468 57.621040 7.580951 16.455051 -4.697224 0.000000 0.000000 0.000000 -0.418848 -0.049911 4.402981 -0.728422 2.785400 -5.036184 -0.783626 -2.200875 7.647959 0.004970 -0.006478 -0.010184 -0.860101 -1.020415 8.996635 -9.725039 7.520195 -3.995045 0.000000 0.000000 0.000000 0.589893 -0.655567 5.603849 8.314969 -0.293436 1.055208 -54.256468 -5.239670 41.351632 -134.250496 -87.171737 166.338151 0.000000 0.000000 0.000000 -3.145969 0.976072 5.213187 34.780208 1.540824 3.329254 42.783892 1.159818 0.573639 -1.740978 27.651305 0.461151 0.000000 0.000000 0.000000 
